<svg width="787" height="255" viewBox="0 0 787 255" fill="none" xmlns="http://www.w3.org/2000/svg">
<!-- Icon -->
<path d="M117.283 66.3806C114.436 66.3272 111.863 66.7939 109.563 67.7806C107.963 68.4739 105.906 70.0772 103.393 72.5906C95.2061 80.7972 86.5228 88.4972 77.3428 95.6906L104.123 68.7106C104.295 68.5381 104.443 68.3394 104.563 68.1206C105.083 67.1339 105.443 65.9472 105.643 64.5606C106.283 60.1339 107.789 50.0739 110.163 34.3806C110.169 34.3297 110.159 34.2782 110.134 34.2332C110.11 34.1881 110.072 34.1517 110.026 34.1288C109.98 34.1059 109.929 34.0976 109.878 34.1051C109.827 34.1125 109.78 34.1354 109.743 34.1706L17.2028 126.711C17.0886 126.827 17.0246 126.983 17.0246 127.146C17.0246 127.308 17.0886 127.465 17.2028 127.581L36.0228 146.341C31.2161 146.021 26.7028 147.234 22.4828 149.981L0.162794 127.421C0.0566176 127.312 -0.00182683 127.165 4.35476e-05 127.011C0.00191392 126.858 0.063944 126.71 0.172788 126.601L126.663 0.110563C126.714 0.0555881 126.782 0.0187223 126.856 0.00546015C126.931 -0.00780201 127.007 0.00324649 127.075 0.0369543C127.142 0.0706621 127.197 0.125233 127.231 0.192548C127.265 0.259863 127.276 0.33633 127.263 0.410566L117.283 66.3806Z" fill="#FFFFFF"/>
<path d="M167.283 37.0706L156.963 43.9406L146.833 33.9706C146.801 33.9417 146.761 33.9233 146.719 33.9176C146.677 33.912 146.633 33.9195 146.595 33.939C146.557 33.9586 146.526 33.9894 146.506 34.0272C146.486 34.065 146.478 34.1081 146.483 34.1506C148.009 45.9373 149.966 57.4206 152.353 68.6006C149.059 70.3873 145.083 71.7906 140.423 72.8106L129.573 0.820599C129.557 0.715133 129.575 0.60745 129.624 0.512692C129.673 0.417935 129.75 0.340864 129.845 0.292309C129.94 0.243755 130.048 0.22615 130.153 0.241986C130.259 0.257822 130.356 0.306302 130.433 0.380597L167.283 37.0706Z" fill="#06B6D4"/>
<path d="M231.693 101.631L221.923 109.061L156.963 43.9406L167.283 37.0706L231.693 101.631Z" fill="#0E7490"/>
<path d="M117.283 66.3806L116.203 72.5006C116.047 73.392 115.617 74.2132 114.973 74.8506L63.403 126.431C63.2278 126.606 63.1295 126.844 63.1295 127.093C63.1295 127.342 63.2278 127.582 63.403 127.761L81.433 145.821L71.633 153.151L45.923 127.391C45.8852 127.353 45.8552 127.309 45.8347 127.26C45.8143 127.211 45.8037 127.159 45.8037 127.106C45.8037 127.053 45.8143 127 45.8347 126.951C45.8552 126.902 45.8852 126.858 45.923 126.821L77.343 95.6906C86.523 88.4972 95.2064 80.7972 103.393 72.5906C105.906 70.0772 107.963 68.4739 109.563 67.7806C111.863 66.7939 114.436 66.3272 117.283 66.3806Z" fill="#0891B2"/>
<path d="M152.353 68.6006L203.553 119.581L190.873 123.911C174.793 107.944 158.763 91.8873 142.783 75.7406C141.99 74.9406 141.203 73.9639 140.423 72.8106C145.083 71.7906 149.06 70.3873 152.353 68.6006Z" fill="#0E7490"/>
<path d="M231.693 101.631L256.803 126.971C256.869 127.037 256.907 127.127 256.907 127.223C256.907 127.318 256.869 127.411 256.803 127.481L129.843 254.441C129.813 254.472 129.773 254.493 129.73 254.5C129.687 254.507 129.643 254.499 129.605 254.479C129.567 254.459 129.536 254.426 129.517 254.387C129.499 254.347 129.494 254.303 129.503 254.261L136.753 205.761C138.393 209.611 137.873 214.281 137.333 217.861C137.327 217.905 137.334 217.95 137.353 217.991C137.372 218.031 137.403 218.065 137.441 218.089C137.479 218.112 137.523 218.124 137.568 218.122C137.613 218.121 137.656 218.106 137.693 218.081C143.273 213.991 146.873 206.131 148.063 199.591C148.65 196.331 149.253 193.101 149.873 189.901C150.653 185.861 152.816 183.214 156.363 181.961L152.043 186.611C151.762 186.924 151.578 187.309 151.513 187.721L146.393 220.451C146.386 220.487 146.391 220.524 146.407 220.557C146.423 220.59 146.449 220.618 146.482 220.634C146.514 220.651 146.552 220.657 146.588 220.651C146.624 220.645 146.658 220.627 146.683 220.601L239.423 127.861C239.502 127.784 239.564 127.693 239.607 127.592C239.651 127.491 239.673 127.382 239.674 127.273C239.675 127.163 239.654 127.054 239.613 126.952C239.571 126.851 239.51 126.758 239.433 126.681L221.923 109.061L231.693 101.631Z" fill="#FFFFFF"/>
<path d="M203.553 119.581L210.633 126.551C210.715 126.632 210.781 126.729 210.826 126.836C210.871 126.942 210.895 127.056 210.896 127.171C210.896 127.287 210.875 127.401 210.831 127.507C210.788 127.613 210.724 127.71 210.643 127.791L156.363 181.961C152.816 183.214 150.653 185.861 149.873 189.901C149.253 193.101 148.65 196.331 148.063 199.591C146.873 206.131 143.273 213.991 137.693 218.081C137.656 218.106 137.613 218.121 137.568 218.122C137.523 218.124 137.479 218.112 137.441 218.089C137.403 218.065 137.372 218.031 137.353 217.991C137.334 217.95 137.327 217.905 137.333 217.861C137.873 214.281 138.393 209.611 136.753 205.761C138.026 198.187 139.196 190.577 140.263 182.931C140.463 181.491 141.116 180.217 142.223 179.111C159.096 162.151 176.106 145.097 193.253 127.951C193.45 127.752 193.562 127.484 193.566 127.205C193.57 126.925 193.465 126.654 193.273 126.451L190.873 123.911L203.553 119.581Z" fill="#0891B2"/>
<path d="M36.0229 146.341L72.5629 183.011L61.2129 188.881L22.4829 149.981C26.7029 147.234 31.2163 146.021 36.0229 146.341Z" fill="#0891B2"/>
<path d="M102.963 167.321L92.1928 173.701L71.6328 153.151L81.4328 145.821L102.963 167.321Z" fill="#0E7490"/>
<path d="M61.2129 188.881L72.5629 183.011L109.563 220.181C109.603 220.222 109.655 220.249 109.711 220.258C109.768 220.268 109.826 220.259 109.877 220.233C109.928 220.208 109.97 220.167 109.996 220.116C110.022 220.065 110.032 220.007 110.023 219.951C107.243 201.237 105.73 191.027 105.483 189.321C105.296 188.061 104.95 187.001 104.443 186.141C104.317 185.935 104.169 185.747 104.003 185.581L92.1929 173.701L102.963 167.321L114.843 179.361C115.664 180.187 116.214 181.247 116.423 182.401C118.103 191.531 118.933 199.331 120.573 209.601C122.04 218.741 124.276 233.404 127.283 253.591C127.323 253.851 127.313 254.031 127.253 254.131C127.216 254.191 127.166 254.242 127.106 254.28C127.047 254.319 126.98 254.343 126.91 254.352C126.839 254.36 126.768 254.353 126.701 254.33C126.634 254.308 126.573 254.27 126.523 254.221L61.2129 188.881Z" fill="#06B6D4"/>
<!-- Text "KnowRisk" scaled 1.15x from left edge (x=289) -->
<g transform="translate(289, 127.5) scale(1.15) translate(-289, -127.5)">
<path d="M610.703 105.391C614.585 105.391 617.733 102.243 617.733 98.3606C617.733 94.478 614.585 91.3306 610.703 91.3306C606.82 91.3306 603.673 94.478 603.673 98.3606C603.673 102.243 606.82 105.391 610.703 105.391Z" fill="#FFFFFF"/>
<path d="M698.833 136.581L721.413 162.031C721.467 162.091 721.502 162.165 721.515 162.245C721.527 162.325 721.517 162.407 721.484 162.481C721.451 162.555 721.398 162.617 721.33 162.662C721.263 162.706 721.184 162.73 721.103 162.731H708.763C708.703 162.732 708.643 162.72 708.588 162.695C708.532 162.671 708.483 162.635 708.443 162.591L688.033 139.581C687.976 139.518 687.902 139.475 687.819 139.455C687.737 139.436 687.651 139.442 687.572 139.472C687.494 139.502 687.426 139.555 687.378 139.625C687.33 139.694 687.304 139.776 687.303 139.861V162.291C687.303 162.402 687.259 162.509 687.18 162.588C687.101 162.666 686.994 162.711 686.883 162.711H676.833C676.721 162.711 676.615 162.666 676.536 162.588C676.457 162.509 676.413 162.402 676.413 162.291V92.7105C676.413 92.5991 676.457 92.4923 676.536 92.4135C676.615 92.3348 676.721 92.2905 676.833 92.2905H686.903C687.014 92.2905 687.121 92.3348 687.2 92.4135C687.279 92.4923 687.323 92.5991 687.323 92.7105V132.771C687.322 132.856 687.346 132.939 687.393 133.01C687.441 133.081 687.509 133.136 687.588 133.168C687.667 133.199 687.754 133.206 687.837 133.187C687.92 133.167 687.995 133.123 688.053 133.061L707.153 112.471C707.192 112.43 707.238 112.397 707.29 112.375C707.341 112.353 707.397 112.341 707.453 112.341H719.863C719.945 112.341 720.025 112.366 720.093 112.412C720.161 112.457 720.214 112.522 720.246 112.597C720.278 112.672 720.287 112.756 720.272 112.836C720.257 112.917 720.219 112.991 720.163 113.051L698.843 136.011C698.77 136.087 698.728 136.188 698.726 136.294C698.725 136.399 698.763 136.502 698.833 136.581Z" fill="#FFFFFF"/>
<path d="M314.023 126.571L343.293 162.241C343.331 162.286 343.356 162.341 343.363 162.4C343.371 162.459 343.362 162.519 343.337 162.573C343.311 162.626 343.271 162.672 343.221 162.703C343.171 162.735 343.112 162.751 343.053 162.751H329.483C329.437 162.751 329.392 162.741 329.351 162.722C329.309 162.703 329.272 162.675 329.243 162.641L302.183 129.671C302.142 129.621 302.087 129.585 302.025 129.568C301.963 129.551 301.897 129.553 301.837 129.575C301.777 129.597 301.724 129.638 301.688 129.69C301.651 129.743 301.632 129.806 301.633 129.871V162.401C301.633 162.483 301.6 162.562 301.542 162.62C301.484 162.678 301.405 162.711 301.323 162.711H290.083C290.001 162.711 289.922 162.678 289.864 162.62C289.806 162.562 289.773 162.483 289.773 162.401V93.3505C289.773 93.2683 289.806 93.1895 289.864 93.1313C289.922 93.0732 290.001 93.0405 290.083 93.0405H301.283C301.365 93.0405 301.444 93.0732 301.502 93.1313C301.56 93.1895 301.593 93.2683 301.593 93.3505V123.401C301.595 123.463 301.615 123.523 301.651 123.573C301.687 123.623 301.737 123.662 301.795 123.683C301.853 123.705 301.917 123.709 301.977 123.694C302.037 123.679 302.091 123.647 302.133 123.601L328.383 93.1705C328.411 93.1369 328.446 93.1097 328.486 93.0908C328.526 93.0718 328.569 93.0615 328.613 93.0605H341.913C341.972 93.0599 342.031 93.0764 342.081 93.1079C342.131 93.1395 342.171 93.1848 342.197 93.2385C342.222 93.2922 342.231 93.3521 342.223 93.4109C342.216 93.4698 342.191 93.5252 342.153 93.5705L314.023 126.171C313.976 126.226 313.95 126.297 313.95 126.371C313.95 126.444 313.976 126.515 314.023 126.571Z" fill="#FFFFFF"/>
<path d="M596.673 162.141C596.706 162.197 596.724 162.26 596.724 162.326C596.724 162.391 596.706 162.455 596.672 162.512C596.639 162.568 596.591 162.616 596.533 162.649C596.475 162.682 596.41 162.7 596.343 162.701H584.953C584.721 162.7 584.494 162.64 584.294 162.526C584.094 162.412 583.928 162.248 583.813 162.051L569.563 137.351C569.486 137.222 569.377 137.116 569.246 137.043C569.114 136.969 568.965 136.93 568.813 136.931H556.153C556.034 136.931 555.919 136.978 555.835 137.062C555.75 137.147 555.703 137.261 555.703 137.381V162.091C555.703 162.171 555.687 162.25 555.656 162.324C555.626 162.398 555.581 162.465 555.524 162.522C555.468 162.579 555.4 162.623 555.326 162.654C555.252 162.685 555.173 162.701 555.093 162.701H545.023C544.816 162.701 544.618 162.618 544.471 162.472C544.325 162.326 544.243 162.127 544.243 161.921V93.7205C544.243 93.5428 544.313 93.3724 544.439 93.2468C544.565 93.1211 544.735 93.0505 544.913 93.0505C546.9 93.0572 554.993 93.0639 569.193 93.0705C574.153 93.0705 577.533 92.9405 581.763 94.8705C592.783 99.8905 597.593 111.791 593.303 122.981C591.21 128.454 587.303 132.484 581.583 135.071C581.529 135.096 581.48 135.133 581.441 135.178C581.402 135.223 581.372 135.275 581.354 135.332C581.336 135.388 581.33 135.447 581.337 135.506C581.344 135.564 581.363 135.62 581.393 135.671L596.673 162.141ZM555.723 103.901L555.683 126.001C555.683 126.128 555.734 126.25 555.824 126.34C555.914 126.43 556.036 126.481 556.163 126.481L571.663 126.501C573.205 126.503 574.732 126.211 576.157 125.64C577.583 125.069 578.878 124.231 579.97 123.173C581.062 122.115 581.929 120.859 582.522 119.476C583.114 118.092 583.42 116.609 583.423 115.111V114.871C583.428 111.845 582.196 108.94 579.998 106.797C577.8 104.653 574.816 103.446 571.703 103.441L556.203 103.421C556.076 103.421 555.954 103.471 555.864 103.561C555.774 103.651 555.723 103.773 555.723 103.901Z" fill="#FFFFFF"/>
<path d="M625.453 152.281C625.403 152.183 625.393 152.07 625.425 151.965C625.456 151.859 625.527 151.768 625.623 151.711L634.163 146.791C634.253 146.738 634.354 146.706 634.459 146.697C634.563 146.688 634.669 146.702 634.768 146.738C634.867 146.774 634.957 146.832 635.032 146.906C635.107 146.981 635.166 147.071 635.203 147.171C637.673 153.931 646.043 155.431 651.933 153.241C653.546 152.641 654.553 151.731 654.953 150.511C656.243 146.561 653.923 144.591 650.423 143.331C646.253 141.831 633.983 140.151 629.713 133.621C624.183 125.181 629.493 115.711 638.263 112.431C641.67 111.157 646.013 110.844 651.293 111.491C657.173 112.211 662.293 115.961 665.363 120.621C665.416 120.701 665.452 120.792 665.47 120.887C665.487 120.982 665.485 121.08 665.463 121.173C665.442 121.267 665.401 121.355 665.344 121.432C665.288 121.509 665.216 121.573 665.133 121.621L657.193 126.211C657.039 126.299 656.856 126.323 656.684 126.278C656.512 126.233 656.365 126.123 656.273 125.971C653.966 122.164 650.163 120.464 644.863 120.871C642.43 121.057 640.473 122.141 638.993 124.121C638.523 124.753 638.298 125.538 638.358 126.338C638.419 127.137 638.76 127.9 639.323 128.491C640.483 129.704 642.01 130.584 643.903 131.131C650.573 133.061 664.183 135.281 665.933 143.671C669.483 160.651 654.543 165.631 640.983 163.511C633.823 162.391 628.646 158.647 625.453 152.281Z" fill="#FFFFFF"/>
<path d="M361.223 117.66C361.222 117.726 361.241 117.791 361.279 117.845C361.317 117.899 361.371 117.94 361.433 117.961C361.496 117.982 361.563 117.983 361.626 117.963C361.689 117.943 361.744 117.904 361.783 117.85C366.313 111.82 373.293 110.61 380.903 111.48C391.543 112.69 396.273 122.58 396.263 132.6C396.236 150.194 396.233 160.084 396.253 162.27C396.254 162.326 396.244 162.382 396.224 162.434C396.203 162.486 396.173 162.534 396.134 162.574C396.094 162.614 396.048 162.646 395.996 162.668C395.945 162.689 395.889 162.7 395.833 162.7H385.483C385.334 162.7 385.192 162.641 385.087 162.536C384.982 162.431 384.923 162.289 384.923 162.14C384.916 148.154 384.926 140.09 384.953 137.95C385.033 129.71 385.403 123.58 376.753 121.58C372.94 120.7 369.39 121.45 366.103 123.83C362.483 126.46 361.273 131.64 361.303 136.67C361.35 146.777 361.363 155.267 361.343 162.14C361.34 162.298 361.276 162.448 361.164 162.558C361.052 162.669 360.9 162.73 360.743 162.73H350.843C350.713 162.73 350.588 162.678 350.497 162.584C350.405 162.49 350.353 162.363 350.353 162.23V112.84C350.353 112.718 350.401 112.601 350.488 112.515C350.574 112.429 350.691 112.38 350.813 112.38H360.623C360.782 112.38 360.935 112.444 361.047 112.556C361.16 112.669 361.223 112.821 361.223 112.98V117.66Z" fill="#FFFFFF"/>
<path d="M458.003 137.581C458.003 144.617 455.208 151.365 450.232 156.34C445.257 161.315 438.509 164.111 431.473 164.111C424.437 164.111 417.689 161.315 412.713 156.34C407.738 151.365 404.943 144.617 404.943 137.581C404.943 130.544 407.738 123.796 412.713 118.821C417.689 113.846 424.437 111.051 431.473 111.051C438.509 111.051 445.257 113.846 450.232 118.821C455.208 123.796 458.003 130.544 458.003 137.581ZM430.331 121.528C426.216 121.808 422.385 123.765 419.68 126.969C416.976 130.172 415.619 134.359 415.909 138.608C416.052 140.712 416.596 142.768 417.508 144.659C418.42 146.55 419.683 148.239 421.225 149.628C422.767 151.018 424.558 152.081 426.495 152.758C428.432 153.435 430.478 153.712 432.515 153.573C436.63 153.293 440.461 151.336 443.165 148.133C445.87 144.929 447.227 140.742 446.937 136.493C446.793 134.389 446.25 132.333 445.338 130.442C444.426 128.551 443.163 126.863 441.621 125.473C440.079 124.083 438.288 123.02 436.351 122.343C434.414 121.666 432.368 121.389 430.331 121.528Z" fill="#FFFFFF"/>
<path d="M514.173 146.051L524.393 112.781C524.427 112.665 524.498 112.563 524.593 112.491C524.689 112.419 524.804 112.38 524.923 112.381H534.713C534.814 112.381 534.914 112.405 535.005 112.451C535.095 112.496 535.174 112.562 535.234 112.643C535.294 112.723 535.335 112.817 535.352 112.915C535.369 113.014 535.363 113.115 535.333 113.211L520.433 161.731C520.345 162.012 520.17 162.258 519.932 162.433C519.695 162.607 519.408 162.701 519.113 162.701H509.583C509.382 162.7 509.187 162.637 509.026 162.521C508.864 162.404 508.744 162.239 508.683 162.051C507.556 158.597 504.22 147.877 498.673 129.891C498.573 129.571 498.46 129.347 498.333 129.221C498.283 129.168 498.221 129.13 498.152 129.11C498.082 129.09 498.009 129.09 497.939 129.108C497.87 129.127 497.806 129.163 497.756 129.215C497.705 129.266 497.67 129.331 497.653 129.401C497.273 130.861 497.153 132.511 496.683 133.981C493.09 145.187 490.193 154.541 487.993 162.041C487.935 162.234 487.817 162.403 487.657 162.524C487.497 162.644 487.302 162.71 487.103 162.711H477.603C477.347 162.71 477.098 162.629 476.891 162.478C476.685 162.327 476.531 162.114 476.453 161.871L461.033 112.821C461.017 112.774 461.013 112.724 461.021 112.675C461.029 112.626 461.049 112.579 461.079 112.539C461.11 112.499 461.15 112.466 461.195 112.444C461.241 112.421 461.292 112.41 461.343 112.411H472.073C472.204 112.41 472.332 112.453 472.437 112.533C472.542 112.612 472.618 112.724 472.653 112.851L482.113 145.951C482.129 146.007 482.163 146.057 482.21 146.093C482.257 146.128 482.314 146.148 482.373 146.148C482.432 146.148 482.489 146.128 482.536 146.093C482.583 146.057 482.617 146.007 482.633 145.951L492.803 112.821C492.844 112.682 492.929 112.56 493.047 112.474C493.164 112.387 493.306 112.341 493.453 112.341H502.893C503.1 112.34 503.302 112.406 503.468 112.529C503.633 112.651 503.755 112.824 503.813 113.021C506.44 121.701 509.37 131.157 512.603 141.391C512.95 142.484 513.28 144.024 513.593 146.011C513.605 146.076 513.638 146.136 513.688 146.18C513.738 146.225 513.801 146.251 513.867 146.256C513.934 146.26 514 146.243 514.055 146.206C514.111 146.168 514.152 146.114 514.173 146.051Z" fill="#FFFFFF"/>
<path d="M615.623 112.331H605.703C605.405 112.331 605.163 112.572 605.163 112.871V162.191C605.163 162.489 605.405 162.731 605.703 162.731H615.623C615.921 162.731 616.163 162.489 616.163 162.191V112.871C616.163 112.572 615.921 112.331 615.623 112.331Z" fill="#FFFFFF"/>
</g>
</svg>
