<svg width="257" height="255" viewBox="0 0 257 255" fill="none" xmlns="http://www.w3.org/2000/svg">
<path d="M117.283 66.3806C114.436 66.3272 111.863 66.7939 109.563 67.7806C107.963 68.4739 105.906 70.0772 103.393 72.5906C95.2061 80.7972 86.5228 88.4972 77.3428 95.6906L104.123 68.7106C104.295 68.5381 104.443 68.3394 104.563 68.1206C105.083 67.1339 105.443 65.9472 105.643 64.5606C106.283 60.1339 107.789 50.0739 110.163 34.3806C110.169 34.3297 110.159 34.2782 110.134 34.2332C110.11 34.1881 110.072 34.1517 110.026 34.1288C109.98 34.1059 109.929 34.0976 109.878 34.1051C109.827 34.1125 109.78 34.1354 109.743 34.1706L17.2028 126.711C17.0886 126.827 17.0246 126.983 17.0246 127.146C17.0246 127.308 17.0886 127.465 17.2028 127.581L36.0228 146.341C31.2161 146.021 26.7028 147.234 22.4828 149.981L0.162794 127.421C0.0566176 127.312 -0.00182683 127.165 4.35476e-05 127.011C0.00191392 126.858 0.063944 126.71 0.172788 126.601L126.663 0.110563C126.714 0.0555881 126.782 0.0187223 126.856 0.00546015C126.931 -0.00780201 127.007 0.00324649 127.075 0.0369543C127.142 0.0706621 127.197 0.125233 127.231 0.192548C127.265 0.259863 127.276 0.33633 127.263 0.410566L117.283 66.3806Z" fill="#FFFFFF"/>
<path d="M167.283 37.0706L156.963 43.9406L146.833 33.9706C146.801 33.9417 146.761 33.9233 146.719 33.9176C146.677 33.912 146.633 33.9195 146.595 33.939C146.557 33.9586 146.526 33.9894 146.506 34.0272C146.486 34.065 146.478 34.1081 146.483 34.1506C148.009 45.9373 149.966 57.4206 152.353 68.6006C149.059 70.3873 145.083 71.7906 140.423 72.8106L129.573 0.820599C129.557 0.715133 129.575 0.60745 129.624 0.512692C129.673 0.417935 129.75 0.340864 129.845 0.292309C129.94 0.243755 130.048 0.22615 130.153 0.241986C130.259 0.257822 130.356 0.306302 130.433 0.380597L167.283 37.0706Z" fill="#06B6D4"/>
<path d="M231.693 101.631L221.923 109.061L156.963 43.9406L167.283 37.0706L231.693 101.631Z" fill="#0E7490"/>
<path d="M117.283 66.3806L116.203 72.5006C116.047 73.392 115.617 74.2132 114.973 74.8506L63.403 126.431C63.2278 126.606 63.1295 126.844 63.1295 127.093C63.1295 127.342 63.2278 127.582 63.403 127.761L81.433 145.821L71.633 153.151L45.923 127.391C45.8852 127.353 45.8552 127.309 45.8347 127.26C45.8143 127.211 45.8037 127.159 45.8037 127.106C45.8037 127.053 45.8143 127 45.8347 126.951C45.8552 126.902 45.8852 126.858 45.923 126.821L77.343 95.6906C86.523 88.4972 95.2064 80.7972 103.393 72.5906C105.906 70.0772 107.963 68.4739 109.563 67.7806C111.863 66.7939 114.436 66.3272 117.283 66.3806Z" fill="#0891B2"/>
<path d="M152.353 68.6006L203.553 119.581L190.873 123.911C174.793 107.944 158.763 91.8873 142.783 75.7406C141.99 74.9406 141.203 73.9639 140.423 72.8106C145.083 71.7906 149.06 70.3873 152.353 68.6006Z" fill="#0E7490"/>
<path d="M231.693 101.631L256.803 126.971C256.869 127.037 256.907 127.127 256.907 127.223C256.907 127.318 256.869 127.411 256.803 127.481L129.843 254.441C129.813 254.472 129.773 254.493 129.73 254.5C129.687 254.507 129.643 254.499 129.605 254.479C129.567 254.459 129.536 254.426 129.517 254.387C129.499 254.347 129.494 254.303 129.503 254.261L136.753 205.761C138.393 209.611 137.873 214.281 137.333 217.861C137.327 217.905 137.334 217.95 137.353 217.991C137.372 218.031 137.403 218.065 137.441 218.089C137.479 218.112 137.523 218.124 137.568 218.122C137.613 218.121 137.656 218.106 137.693 218.081C143.273 213.991 146.873 206.131 148.063 199.591C148.65 196.331 149.253 193.101 149.873 189.901C150.653 185.861 152.816 183.214 156.363 181.961L152.043 186.611C151.762 186.924 151.578 187.309 151.513 187.721L146.393 220.451C146.386 220.487 146.391 220.524 146.407 220.557C146.423 220.59 146.449 220.618 146.482 220.634C146.514 220.651 146.552 220.657 146.588 220.651C146.624 220.645 146.658 220.627 146.683 220.601L239.423 127.861C239.502 127.784 239.564 127.693 239.607 127.592C239.651 127.491 239.673 127.382 239.674 127.273C239.675 127.163 239.654 127.054 239.613 126.952C239.571 126.851 239.51 126.758 239.433 126.681L221.923 109.061L231.693 101.631Z" fill="#FFFFFF"/>
<path d="M203.553 119.581L210.633 126.551C210.715 126.632 210.781 126.729 210.826 126.836C210.871 126.942 210.895 127.056 210.896 127.171C210.896 127.287 210.875 127.401 210.831 127.507C210.788 127.613 210.724 127.71 210.643 127.791L156.363 181.961C152.816 183.214 150.653 185.861 149.873 189.901C149.253 193.101 148.65 196.331 148.063 199.591C146.873 206.131 143.273 213.991 137.693 218.081C137.656 218.106 137.613 218.121 137.568 218.122C137.523 218.124 137.479 218.112 137.441 218.089C137.403 218.065 137.372 218.031 137.353 217.991C137.334 217.95 137.327 217.905 137.333 217.861C137.873 214.281 138.393 209.611 136.753 205.761C138.026 198.187 139.196 190.577 140.263 182.931C140.463 181.491 141.116 180.217 142.223 179.111C159.096 162.151 176.106 145.097 193.253 127.951C193.45 127.752 193.562 127.484 193.566 127.205C193.57 126.925 193.465 126.654 193.273 126.451L190.873 123.911L203.553 119.581Z" fill="#0891B2"/>
<path d="M36.0229 146.341L72.5629 183.011L61.2129 188.881L22.4829 149.981C26.7029 147.234 31.2163 146.021 36.0229 146.341Z" fill="#0891B2"/>
<path d="M102.963 167.321L92.1928 173.701L71.6328 153.151L81.4328 145.821L102.963 167.321Z" fill="#0E7490"/>
<path d="M61.2129 188.881L72.5629 183.011L109.563 220.181C109.603 220.222 109.655 220.249 109.711 220.258C109.768 220.268 109.826 220.259 109.877 220.233C109.928 220.208 109.97 220.167 109.996 220.116C110.022 220.065 110.032 220.007 110.023 219.951C107.243 201.237 105.73 191.027 105.483 189.321C105.296 188.061 104.95 187.001 104.443 186.141C104.317 185.935 104.169 185.747 104.003 185.581L92.1929 173.701L102.963 167.321L114.843 179.361C115.664 180.187 116.214 181.247 116.423 182.401C118.103 191.531 118.933 199.331 120.573 209.601C122.04 218.741 124.276 233.404 127.283 253.591C127.323 253.851 127.313 254.031 127.253 254.131C127.216 254.191 127.166 254.242 127.106 254.28C127.047 254.319 126.98 254.343 126.91 254.352C126.839 254.36 126.768 254.353 126.701 254.33C126.634 254.308 126.573 254.27 126.523 254.221L61.2129 188.881Z" fill="#06B6D4"/>
</svg>
